<svg xmlns="http://www.w3.org/2000/svg" viewBox="14 11 42 50" width="64" height="64">
  <g fill="currentColor">
    <path d="M17 14
             C24 12.5, 34 11.5, 45 11.5
             C48.5 11.5, 51 12.5, 52 14.5
             C50.8 16.8, 48.3 18, 45 18
             C35.5 18, 27 18.8, 19.5 20.2
             C17.2 19.4, 15.8 17.8, 15.2 15.8
             C15.6 15, 16.2 14.4, 17 14Z"/>

    <path d="M16 26
             C24 25, 33 24.3, 43.5 24.3
             C49 24.3, 53 25.6, 55.2 28.5
             C53.3 31.2, 49.9 32.6, 45.5 32.6
             C36.7 32.6, 28.6 33.1, 20.6 34.2
             C17.8 33.4, 15.8 31.6, 14.8 28.8
             C15 27.8, 15.4 26.9, 16 26Z"/>

    <path d="M40.8 25.2
             C44.8 25.4, 48 26.5, 49.9 28.8
             C51.3 30.6, 51.2 32.7, 49.7 35
             C47.2 38.8, 44.7 42.6, 42.3 46.6
             C38.7 52.5, 33.4 57, 25.4 60.2
             C24.6 60.5, 23.8 60, 23.6 59.2
             C23.5 58.5, 23.9 57.8, 24.5 57.4
             C30.8 53.3, 35.9 48.1, 39.7 41.8
             C42.3 37.7, 44.1 34.2, 45.2 31.4
             C45.7 30, 45.2 29.2, 43.7 29
             C42.4 28.8, 41.4 27.8, 40.8 25.2Z"/>
  </g>
</svg>
